<?xml version="1.0" encoding="UTF-8"?><svg id="Layer_2" xmlns="http://www.w3.org/2000/svg" viewBox="0 0 234.35 81.5"><defs><style>.cls-1{fill:#fff;}.cls-2{fill:#21b9da;}.cls-3{fill:#fdc400;}</style></defs><g id="Capa_1"><path class="cls-1" d="M42.71,47.77s7.68-2.42,7.68-12.46c0-10.99-7.64-16.29-21.95-16.29H0v46.22c0,2.99,2.45,5.39,5.43,5.39h8.15s0-16.3,0-16.3h16.32c6.61,0,10.84,2.36,10.84,8.15s-4.23,8.15-10.84,8.15H13.58v10.87h18.2c11.81,0,23.09-4.33,23.09-19.01,0-9.33-6.59-13.77-12.16-14.71ZM25.35,43.47h-11.77v-13.58h11.77c6.8,0,10.75,1.6,10.75,6.68,0,5.53-3.95,6.9-10.75,6.9Z"/><path class="cls-1" d="M65.2,38.03c-2.99,0-5.43,2.45-5.43,5.43v38.03h13.58v-43.46h-8.15Z"/><path class="cls-2" d="M62.48,19.02c-1.49,0-2.72,1.22-2.72,2.72v8.15s10.87,0,10.87,0c1.49,0,2.72-1.22,2.72-2.72v-8.15h-10.87Z"/><path class="cls-3" d="M95.08,0h-16.3c-2.99,0-5.43,2.45-5.43,5.43v13.58h16.3c2.99,0,5.43-2.45,5.43-5.43V0Z"/><path class="cls-1" d="M95.1,62.25v-13.13h5.16c3.17,0,5.14.83,5.14,3.28,0,.9-.19,2.16-1.58,2.74,1.95.56,2.48,1.71,2.48,3.26,0,2.68-1.95,3.85-5.12,3.85h-6.08ZM97.99,51.45v2.81h2.29c1.39,0,2.19-.26,2.19-1.43,0-1.07-.81-1.39-2.19-1.39h-2.29ZM97.99,56.46v3.47h3.19c1.35,0,2.21-.54,2.21-1.71s-.86-1.76-2.21-1.76h-3.19Z"/><path class="cls-1" d="M127.35,62.25l-1.41-3.15h-5.57l-1.44,3.15h-2.98l5.87-13.13h2.87l5.74,13.13h-3.08ZM121.29,56.91h3.71l-1.84-4.5-1.88,4.5Z"/><path class="cls-1" d="M140.89,62.25v-13.13h3l6,8.76v-8.76h2.89v13.13h-2.98l-6.02-8.8v8.8h-2.89Z"/><path class="cls-1" d="M170.92,49.12c3.19,0,5.12,1.2,5.12,4.22s-1.93,4.18-5.12,4.18h-2.72v4.73h-2.89v-13.13h5.61ZM168.2,51.45v3.75h2.72c1.39,0,2.21-.6,2.21-1.86,0-1.35-.83-1.89-2.21-1.89h-2.72Z"/><path class="cls-1" d="M195.31,62.25l-1.41-3.15h-5.57l-1.44,3.15h-2.98l5.87-13.13h2.87l5.74,13.13h-3.08ZM189.25,56.91h3.71l-1.84-4.5-1.88,4.5Z"/><path class="cls-1" d="M208.85,62.25v-13.13h2.89v13.13h-2.89Z"/><path class="cls-1" d="M232.94,52.22c-1.43-.58-2.57-.96-4.28-.96-1.48,0-2.36.28-2.36,1.07s0,1.14,3.49,2.16c2.33.68,4.56,1.14,4.56,3.96,0,3.32-3.15,4.03-5.82,4.03-2.16,0-3.9-.47-5.83-1.63l1.31-2.14c1.67.96,3,1.41,4.39,1.41,1.16,0,3.02-.32,3.02-1.65,0-1.07-1.18-1.41-2.61-1.78-3.62-.96-5.42-1.52-5.42-3.98,0-2.59,2.01-3.81,5.4-3.81,1.44,0,3.13.22,5.03,1.16l-.88,2.16Z"/><path class="cls-1" d="M210.72,44.94h3.37l-2.48,3.07h-2.44l1.54-3.07Z"/></g></svg>